<svg width="48" height="48" viewBox="0 0 48 48" fill="none" xmlns="http://www.w3.org/2000/svg">
<path d="M31.3727 12.8943C31.4718 12.6368 31.7615 12.5073 32.0192 12.6062L43.902 17.1678C44.1593 17.2668 44.2876 17.5558 44.1891 17.8133L39.6276 29.6961C39.5286 29.9538 39.2398 30.0821 38.9821 29.9832C38.7243 29.8842 38.5951 29.5954 38.694 29.3377L42.8229 18.5808L38.445 20.531C33.3216 22.8121 29.4165 26.7009 27.0592 31.3387C26.9867 31.4813 26.85 31.581 26.692 31.6062C26.5339 31.6314 26.3736 31.5788 26.2604 31.4656L18.0006 23.2058L4.85414 36.3533C4.65889 36.5485 4.34235 36.5485 4.14711 36.3533C3.95194 36.1581 3.95194 35.8415 4.14711 35.6463L17.6471 22.1463L17.7233 22.0838C17.8048 22.0295 17.9013 21.9998 18.0006 21.9998C18.1331 21.9998 18.2604 22.0526 18.3541 22.1463L26.4879 30.2791C28.9716 25.7125 32.9223 21.8955 38.0377 19.618L42.4157 17.6678L31.6608 13.5398C31.4032 13.4409 31.2741 13.152 31.3727 12.8943Z" fill="#1FB5B8"/>
<path d="M31.3727 12.8943L30.4394 12.5353L30.4387 12.537L31.3727 12.8943ZM32.0192 12.6062L32.3776 11.6727L32.3775 11.6727L32.0192 12.6062ZM43.902 17.1678L44.2613 16.2345L44.2604 16.2342L43.902 17.1678ZM44.1891 17.8133L45.1227 18.1716L45.1231 18.1706L44.1891 17.8133ZM39.6276 29.6961L40.561 30.0547L40.5612 30.0545L39.6276 29.6961ZM38.9821 29.9832L38.6236 30.9167L38.6238 30.9168L38.9821 29.9832ZM38.694 29.3377L37.7604 28.9793L37.7603 28.9796L38.694 29.3377ZM42.8229 18.5808L43.7565 18.9392C43.9014 18.5616 43.8046 18.1338 43.5112 17.8554C43.2177 17.577 42.7855 17.5028 42.416 17.6674L42.8229 18.5808ZM38.445 20.531L38.8517 21.4446L38.8519 21.4445L38.445 20.531ZM27.0592 31.3387L26.1678 30.8855L26.1677 30.8856L27.0592 31.3387ZM26.692 31.6062L26.849 32.5938L26.8496 32.5937L26.692 31.6062ZM26.2604 31.4656L25.5533 32.1727L25.5533 32.1727L26.2604 31.4656ZM18.0006 23.2058L18.7077 22.4987C18.5202 22.3112 18.2658 22.2058 18.0006 22.2058C17.7354 22.2058 17.481 22.3112 17.2935 22.4988L18.0006 23.2058ZM4.85414 36.3533L5.5611 37.0606L5.56127 37.0604L4.85414 36.3533ZM4.14711 36.3533L3.43986 37.0603L3.44014 37.0606L4.14711 36.3533ZM4.14711 35.6463L3.44 34.9392L3.43985 34.9393L4.14711 35.6463ZM17.6471 22.1463L17.0128 21.3732C16.9875 21.394 16.9632 21.416 16.94 21.4392L17.6471 22.1463ZM17.7233 22.0838L17.169 21.2514C17.1414 21.2698 17.1146 21.2896 17.089 21.3107L17.7233 22.0838ZM18.0006 21.9998L18.001 20.9998H18.0006V21.9998ZM18.3541 22.1463L19.0612 21.4391L19.0611 21.439L18.3541 22.1463ZM26.4879 30.2791L25.7809 30.9862C26.0039 31.2092 26.319 31.3139 26.6311 31.2688C26.9432 31.2236 27.2157 31.0339 27.3664 30.7569L26.4879 30.2791ZM38.0377 19.618L38.4445 20.5315L38.4446 20.5314L38.0377 19.618ZM42.4157 17.6678L42.8226 18.5812C43.192 18.4167 43.4259 18.0458 43.4153 17.6415C43.4047 17.2372 43.1516 16.8791 42.774 16.7342L42.4157 17.6678ZM31.6608 13.5398L31.3024 14.4734L31.3024 14.4734L31.6608 13.5398ZM31.3727 12.8943L32.306 13.2534C32.2076 13.5093 31.9202 13.6394 31.6608 13.5398L32.0192 12.6062L32.3775 11.6727C31.6028 11.3752 30.736 11.7643 30.4394 12.5353L31.3727 12.8943ZM32.0192 12.6062L31.6608 13.5398L43.5436 18.1013L43.902 17.1678L44.2604 16.2342L32.3776 11.6727L32.0192 12.6062ZM43.902 17.1678L43.5427 18.101C43.2843 18.0015 43.157 17.7125 43.2551 17.4559L44.1891 17.8133L45.1231 18.1706C45.4183 17.3991 45.0342 16.5321 44.2613 16.2345L43.902 17.1678ZM44.1891 17.8133L43.2555 17.4549L38.694 29.3377L39.6276 29.6961L40.5612 30.0545L45.1227 18.1716L44.1891 17.8133ZM39.6276 29.6961L38.6941 29.3374C38.7934 29.0791 39.0832 28.9509 39.3403 29.0496L38.9821 29.9832L38.6238 30.9168C39.3964 31.2133 40.2638 30.8284 40.561 30.0547L39.6276 29.6961ZM38.9821 29.9832L39.3405 29.0496C39.5963 29.1479 39.7273 29.4361 39.6277 29.6958L38.694 29.3377L37.7603 28.9796C37.463 29.7548 37.8523 30.6206 38.6236 30.9167L38.9821 29.9832ZM38.694 29.3377L39.6276 29.696L43.7565 18.9392L42.8229 18.5808L41.8893 18.2225L37.7604 28.9793L38.694 29.3377ZM42.8229 18.5808L42.416 17.6674L38.038 19.6176L38.445 20.531L38.8519 21.4445L43.2298 19.4943L42.8229 18.5808ZM38.445 20.531L38.0382 19.6175C32.6977 21.9952 28.6253 26.0507 26.1678 30.8855L27.0592 31.3387L27.9507 31.7918C30.2078 27.3511 33.9455 23.629 38.8517 21.4446L38.445 20.531ZM27.0592 31.3387L26.1677 30.8856C26.2399 30.7435 26.3757 30.6441 26.5344 30.6187L26.692 31.6062L26.8496 32.5937C27.3244 32.518 27.7335 32.2191 27.9507 31.7917L27.0592 31.3387ZM26.692 31.6062L26.5351 30.6186C26.6955 30.5931 26.8559 30.6469 26.9675 30.7585L26.2604 31.4656L25.5533 32.1727C25.8914 32.5108 26.3722 32.6696 26.849 32.5938L26.692 31.6062ZM26.2604 31.4656L26.9675 30.7585L18.7077 22.4987L18.0006 23.2058L17.2935 23.9129L25.5533 32.1727L26.2604 31.4656ZM18.0006 23.2058L17.2935 22.4988L4.14701 35.6462L4.85414 36.3533L5.56127 37.0604L18.7078 23.9129L18.0006 23.2058ZM4.85414 36.3533L4.14717 35.6461C4.34242 35.4509 4.65882 35.4509 4.85407 35.6461L4.14711 36.3533L3.44014 37.0606C4.02588 37.6461 4.97537 37.6461 5.5611 37.0606L4.85414 36.3533ZM4.14711 36.3533L4.85435 35.6463C5.04953 35.8416 5.04952 36.158 4.85436 36.3532L4.14711 35.6463L3.43985 34.9393C2.85436 35.525 2.85435 36.4745 3.43986 37.0603L4.14711 36.3533ZM4.14711 35.6463L4.85421 36.3534L18.3542 22.8534L17.6471 22.1463L16.94 21.4392L3.44 34.9392L4.14711 35.6463ZM17.6471 22.1463L18.2814 22.9193L18.3576 22.8568L17.7233 22.0838L17.089 21.3107L17.0128 21.3732L17.6471 22.1463ZM17.7233 22.0838L18.2775 22.9161C18.1966 22.97 18.1006 22.9998 18.0006 22.9998V21.9998V20.9998C17.7019 20.9998 17.4129 21.089 17.169 21.2514L17.7233 22.0838ZM18.0006 21.9998L18.0002 22.9998C17.8677 22.9997 17.7408 22.9471 17.6472 22.8535L18.3541 22.1463L19.0611 21.439C18.78 21.158 18.3986 20.9999 18.001 20.9998L18.0006 21.9998ZM18.3541 22.1463L17.6471 22.8534L25.7809 30.9862L26.4879 30.2791L27.195 29.5719L19.0612 21.4391L18.3541 22.1463ZM26.4879 30.2791L27.3664 30.7569C29.7488 26.3765 33.537 22.7165 38.4445 20.5315L38.0377 19.618L37.631 18.7044C32.3076 21.0745 28.1944 25.0484 25.6094 29.8013L26.4879 30.2791ZM38.0377 19.618L38.4446 20.5314L42.8226 18.5812L42.4157 17.6678L42.0087 16.7543L37.6308 18.7045L38.0377 19.618ZM42.4157 17.6678L42.774 16.7342L32.0191 12.6062L31.6608 13.5398L31.3024 14.4734L42.0573 18.6014L42.4157 17.6678ZM31.6608 13.5398L32.0191 12.6062C32.276 12.7049 32.4055 12.9932 32.3067 13.2516L31.3727 12.8943L30.4387 12.537C30.1427 13.3108 30.5303 14.177 31.3024 14.4734L31.6608 13.5398Z" fill="#1FB5B8"/>
</svg>
