<svg width="48" height="48" viewBox="0 0 48 48" fill="none" xmlns="http://www.w3.org/2000/svg">
<path d="M28.1343 4.15956C28.2911 3.99157 28.542 3.95213 28.7427 4.06386C28.9435 4.17582 29.0425 4.41039 28.982 4.63222L24.6539 20.5004H40.4996C40.6987 20.5004 40.8792 20.6186 40.9585 20.8012C41.0377 20.9837 41.0005 21.1957 40.8648 21.3412L19.8648 43.8412C19.7079 44.0089 19.457 44.0487 19.2564 43.9369C19.0558 43.825 18.9569 43.5902 19.0171 43.3685L23.3453 27.5004H7.49956C7.30068 27.5002 7.1199 27.382 7.04057 27.1996C6.96142 27.0172 6.99886 26.8051 7.13432 26.6596L28.1343 4.15956ZM8.64995 26.5004H23.9996C24.1554 26.5004 24.3024 26.5729 24.397 26.6967C24.4916 26.8205 24.523 26.9819 24.482 27.1322L20.5132 41.681L39.3492 21.5004H23.9996C23.8439 21.5002 23.6966 21.4278 23.6021 21.3041C23.5076 21.1804 23.4763 21.0188 23.5171 20.8685L27.4849 6.31874L8.64995 26.5004Z" fill="#9A48FE"/>
<path d="M28.1343 4.15956L27.4033 3.47724L27.4033 3.47724L28.1343 4.15956ZM28.7427 4.06386L29.2297 3.19043L29.229 3.19005L28.7427 4.06386ZM28.982 4.63222L29.9467 4.89536L29.9467 4.89533L28.982 4.63222ZM24.6539 20.5004L23.6891 20.2372C23.6071 20.5379 23.67 20.8597 23.8591 21.1074C24.0483 21.3551 24.3422 21.5004 24.6539 21.5004V20.5004ZM40.9585 20.8012L41.876 20.4033L41.8757 20.4026L40.9585 20.8012ZM40.8648 21.3412L41.5958 22.0235L41.5959 22.0234L40.8648 21.3412ZM19.8648 43.8412L20.5951 44.5243L20.5958 44.5235L19.8648 43.8412ZM19.2564 43.9369L18.7691 44.8101L18.7697 44.8105L19.2564 43.9369ZM19.0171 43.3685L18.0524 43.1054L18.0521 43.1063L19.0171 43.3685ZM23.3453 27.5004L24.31 27.7635C24.392 27.4628 24.3292 27.1411 24.14 26.8934C23.9508 26.6457 23.6569 26.5004 23.3453 26.5004V27.5004ZM7.49956 27.5004L7.49869 28.5004H7.49956V27.5004ZM7.04057 27.1996L6.12326 27.5978L6.12354 27.5984L7.04057 27.1996ZM7.13432 26.6596L6.40327 25.9772L6.40246 25.9781L7.13432 26.6596ZM8.64995 26.5004L7.91887 25.8181C7.64719 26.1092 7.5741 26.5337 7.73281 26.8989C7.89151 27.2641 8.25176 27.5004 8.64995 27.5004V26.5004ZM24.397 26.6967L25.1917 26.0897L25.1916 26.0895L24.397 26.6967ZM24.482 27.1322L25.4467 27.3954L25.4467 27.3953L24.482 27.1322ZM20.5132 41.681L19.5485 41.4179C19.4275 41.8615 19.6246 42.3305 20.0263 42.5545C20.4279 42.7784 20.9305 42.6996 21.2443 42.3634L20.5132 41.681ZM39.3492 21.5004L40.0802 22.1827C40.3519 21.8916 40.425 21.4671 40.2663 21.1018C40.1076 20.7366 39.7474 20.5004 39.3492 20.5004V21.5004ZM23.9996 21.5004L23.9987 22.5004H23.9996V21.5004ZM23.6021 21.3041L22.8074 21.9111L22.8075 21.9113L23.6021 21.3041ZM23.5171 20.8685L22.5524 20.6055L22.5521 20.6063L23.5171 20.8685ZM27.4849 6.31874L28.4497 6.58184C28.5707 6.13818 28.3735 5.66921 27.9718 5.4453C27.5702 5.22138 27.0676 5.30026 26.7538 5.63645L27.4849 6.31874ZM28.1343 4.15956L28.8654 4.84188C28.7086 5.00988 28.4572 5.0494 28.2564 4.93766L28.7427 4.06386L29.229 3.19005C28.6267 2.85486 27.8737 2.97326 27.4033 3.47724L28.1343 4.15956ZM28.7427 4.06386L28.2558 4.93729C28.0559 4.82588 27.9564 4.59201 28.0172 4.3691L28.982 4.63222L29.9467 4.89533C30.1285 4.22878 29.8312 3.52577 29.2297 3.19043L28.7427 4.06386ZM28.982 4.63222L28.0172 4.36908L23.6891 20.2372L24.6539 20.5004L25.6186 20.7635L29.9467 4.89536L28.982 4.63222ZM24.6539 20.5004V21.5004H40.4996V20.5004V19.5004H24.6539V20.5004ZM40.4996 20.5004V21.5004C40.3012 21.5004 40.121 21.383 40.0414 21.1997L40.9585 20.8012L41.8757 20.4026C41.6373 19.8541 41.0961 19.5004 40.4996 19.5004V20.5004ZM40.9585 20.8012L40.0411 21.1991C39.961 21.0143 39.9996 20.8026 40.1337 20.659L40.8648 21.3412L41.5959 22.0234C42.0014 21.5889 42.1144 20.9531 41.876 20.4033L40.9585 20.8012ZM40.8648 21.3412L40.1337 20.6589L19.1337 43.1589L19.8648 43.8412L20.5958 44.5235L41.5958 22.0235L40.8648 21.3412ZM19.8648 43.8412L19.1345 43.1581C19.2901 42.9917 19.5408 42.9506 19.743 43.0633L19.2564 43.9369L18.7697 44.8105C19.3733 45.1467 20.1257 45.0261 20.5951 44.5243L19.8648 43.8412ZM19.2564 43.9369L19.7437 43.0637C19.9438 43.1753 20.0425 43.4086 19.9821 43.6308L19.0171 43.3685L18.0521 43.1063C17.8713 43.7717 18.1678 44.4746 18.7691 44.8101L19.2564 43.9369ZM19.0171 43.3685L19.9819 43.6317L24.31 27.7635L23.3453 27.5004L22.3805 27.2372L18.0524 43.1054L19.0171 43.3685ZM23.3453 27.5004V26.5004H7.49956V27.5004V28.5004H23.3453V27.5004ZM7.49956 27.5004L7.50042 26.5004C7.6979 26.5006 7.87772 26.6171 7.95761 26.8008L7.04057 27.1996L6.12354 27.5984C6.36207 28.1469 6.90346 28.4999 7.49869 28.5004L7.49956 27.5004ZM7.04057 27.1996L7.95789 26.8014C8.03866 26.9875 7.99889 27.1985 7.86619 27.341L7.13432 26.6596L6.40246 25.9781C5.99882 26.4116 5.88417 27.0469 6.12326 27.5978L7.04057 27.1996ZM7.13432 26.6596L7.86538 27.3419L28.8654 4.84188L28.1343 4.15956L27.4033 3.47724L6.40327 25.9772L7.13432 26.6596ZM8.64995 26.5004V27.5004H23.9996V26.5004V25.5004H8.64995V26.5004ZM23.9996 26.5004V27.5004C23.8447 27.5004 23.6976 27.4284 23.6024 27.3038L24.397 26.6967L25.1916 26.0895C24.9072 25.7174 24.466 25.5004 23.9996 25.5004V26.5004ZM24.397 26.6967L23.6023 27.3036C23.5073 27.1792 23.4764 27.0187 23.5172 26.8691L24.482 27.1322L25.4467 27.3953C25.5696 26.945 25.476 26.4618 25.1917 26.0897L24.397 26.6967ZM24.482 27.1322L23.5172 26.869L19.5485 41.4179L20.5132 41.681L21.478 41.9442L25.4467 27.3954L24.482 27.1322ZM20.5132 41.681L21.2443 42.3634L40.0802 22.1827L39.3492 21.5004L38.6181 20.8181L19.7822 40.9987L20.5132 41.681ZM39.3492 21.5004V20.5004H23.9996V21.5004V22.5004H39.3492V21.5004ZM23.9996 21.5004L24.0004 20.5004C24.1542 20.5005 24.301 20.5718 24.3967 20.6969L23.6021 21.3041L22.8075 21.9113C23.0922 22.2838 23.5336 22.5 23.9987 22.5004L23.9996 21.5004ZM23.6021 21.3041L24.3968 20.6971C24.4924 20.8222 24.5225 20.9823 24.4821 21.1308L23.5171 20.8685L22.5521 20.6063C22.4301 21.0553 22.5228 21.5385 22.8074 21.9111L23.6021 21.3041ZM23.5171 20.8685L24.4819 21.1316L28.4497 6.58184L27.4849 6.31874L26.5201 6.05565L22.5524 20.6055L23.5171 20.8685ZM27.4849 6.31874L26.7538 5.63645L7.91887 25.8181L8.64995 26.5004L9.38103 27.1827L28.216 7.00104L27.4849 6.31874Z" fill="#9A48FE"/>
</svg>
