<svg width="48" height="48" viewBox="0 0 48 48" fill="none" xmlns="http://www.w3.org/2000/svg">
<path d="M24 4C28.617 4 32.8217 4.93437 35.8906 6.46875C38.9297 7.98828 41 10.1804 41 12.75V35.25C41 37.8196 38.9297 40.0117 35.8906 41.5312C32.8217 43.0656 28.617 44 24 44C19.383 44 15.1783 43.0656 12.1094 41.5312C9.07031 40.0117 7 37.8196 7 35.25V12.75C7 10.1804 9.07031 7.98828 12.1094 6.46875C15.1783 4.93437 19.383 4 24 4ZM40 30.7432C39.1052 32.0285 37.6633 33.1449 35.8906 34.0312C32.8217 35.5656 28.617 36.5 24 36.5C19.383 36.5 15.1783 35.5656 12.1094 34.0312C10.3367 33.1449 8.89478 32.0285 8 30.7432V35.25C8 37.2368 9.62388 39.1703 12.5566 40.6367C15.4595 42.088 19.5046 43 24 43C28.4954 43 32.5405 42.088 35.4434 40.6367C38.3761 39.1703 40 37.2368 40 35.25V30.7432ZM40 23.2432C39.1052 24.5285 37.6633 25.6449 35.8906 26.5312C32.8217 28.0656 28.617 29 24 29C19.383 29 15.1783 28.0656 12.1094 26.5312C10.3367 25.6449 8.89478 24.5285 8 23.2432V27.75C8 29.7368 9.62388 31.6703 12.5566 33.1367C15.4595 34.588 19.5046 35.5 24 35.5C28.4954 35.5 32.5405 34.588 35.4434 33.1367C38.3761 31.6703 40 29.7368 40 27.75V23.2432ZM40 15.7432C39.1052 17.0285 37.6633 18.1449 35.8906 19.0312C32.8217 20.5656 28.617 21.5 24 21.5C19.383 21.5 15.1783 20.5656 12.1094 19.0312C10.3367 18.1449 8.89478 17.0285 8 15.7432V20.25C8 22.2368 9.62388 24.1703 12.5566 25.6367C15.4595 27.088 19.5046 28 24 28C28.4954 28 32.5405 27.088 35.4434 25.6367C38.3761 24.1703 40 22.2368 40 20.25V15.7432ZM24 5C19.5046 5 15.4595 5.91196 12.5566 7.36328C9.62388 8.82966 8 10.7632 8 12.75C8 14.7368 9.62388 16.6703 12.5566 18.1367C15.4595 19.588 19.5046 20.5 24 20.5C28.4954 20.5 32.5405 19.588 35.4434 18.1367C38.3761 16.6703 40 14.7368 40 12.75C40 10.7632 38.3761 8.82966 35.4434 7.36328C32.5405 5.91196 28.4954 5 24 5Z" fill="#3577F6"/>
<path d="M35.8906 6.46875L36.3378 5.57432L36.3378 5.57431L35.8906 6.46875ZM35.8906 41.5312L36.3378 42.4257L36.3378 42.4257L35.8906 41.5312ZM12.1094 41.5312L11.6622 42.4257L11.6622 42.4257L12.1094 41.5312ZM12.1094 6.46875L11.6622 5.57431L11.6622 5.57432L12.1094 6.46875ZM40 30.7432H41C41 30.3062 40.7163 29.9199 40.2994 29.789C39.8825 29.6582 39.4289 29.8132 39.1793 30.1718L40 30.7432ZM35.8906 34.0312L36.3378 34.9257L36.3378 34.9257L35.8906 34.0312ZM12.1094 34.0312L11.6622 34.9257L11.6622 34.9257L12.1094 34.0312ZM8 30.7432L8.82072 30.1718C8.57107 29.8132 8.1175 29.6582 7.7006 29.789C7.28369 29.9199 7 30.3062 7 30.7432H8ZM12.5566 40.6367L12.1094 41.5311L12.1094 41.5312L12.5566 40.6367ZM35.4434 40.6367L35.8906 41.5312L35.8906 41.5311L35.4434 40.6367ZM40 23.2432H41C41 22.8062 40.7163 22.4199 40.2994 22.289C39.8825 22.1582 39.4289 22.3132 39.1793 22.6718L40 23.2432ZM35.8906 26.5312L36.3378 27.4257L36.3378 27.4257L35.8906 26.5312ZM12.1094 26.5312L11.6622 27.4257L11.6622 27.4257L12.1094 26.5312ZM8 23.2432L8.82072 22.6718C8.57107 22.3132 8.1175 22.1582 7.7006 22.289C7.28369 22.4199 7 22.8062 7 23.2432H8ZM12.5566 33.1367L12.1094 34.0311L12.1094 34.0312L12.5566 33.1367ZM35.4434 33.1367L35.8906 34.0312L35.8906 34.0311L35.4434 33.1367ZM40 15.7432H41C41 15.3062 40.7163 14.9199 40.2994 14.789C39.8825 14.6582 39.4289 14.8132 39.1793 15.1718L40 15.7432ZM35.8906 19.0312L36.3378 19.9257L36.3378 19.9257L35.8906 19.0312ZM12.1094 19.0312L11.6622 19.9257L11.6622 19.9257L12.1094 19.0312ZM8 15.7432L8.82072 15.1718C8.57107 14.8132 8.1175 14.6582 7.7006 14.789C7.28369 14.9199 7 15.3062 7 15.7432H8ZM12.5566 25.6367L12.1094 26.5311L12.1094 26.5312L12.5566 25.6367ZM35.4434 25.6367L35.8906 26.5312L35.8906 26.5311L35.4434 25.6367ZM12.5566 7.36328L12.1094 6.46884L12.1094 6.46885L12.5566 7.36328ZM12.5566 18.1367L12.1094 19.0311L12.1094 19.0312L12.5566 18.1367ZM35.4434 18.1367L35.8906 19.0312L35.8906 19.0311L35.4434 18.1367ZM35.4434 7.36328L35.8906 6.46885L35.8906 6.46884L35.4434 7.36328ZM24 4V5C28.4954 5 32.5406 5.91188 35.4434 7.36319L35.8906 6.46875L36.3378 5.57431C33.1027 3.95686 28.7385 3 24 3V4ZM35.8906 6.46875L35.4434 7.36318C38.3776 8.83026 40 10.7642 40 12.75H41H42C42 9.59663 39.4818 7.14631 36.3378 5.57432L35.8906 6.46875ZM41 12.75H40V35.25H41H42V12.75H41ZM41 35.25H40C40 37.2358 38.3776 39.1697 35.4434 40.6368L35.8906 41.5312L36.3378 42.4257C39.4818 40.8537 42 38.4034 42 35.25H41ZM35.8906 41.5312L35.4434 40.6368C32.5406 42.0881 28.4954 43 24 43V44V45C28.7385 45 33.1027 44.0431 36.3378 42.4257L35.8906 41.5312ZM24 44V43C19.5046 43 15.4594 42.0881 12.5566 40.6368L12.1094 41.5312L11.6622 42.4257C14.8973 44.0431 19.2615 45 24 45V44ZM12.1094 41.5312L12.5566 40.6368C9.62243 39.1697 8 37.2358 8 35.25H7H6C6 38.4034 8.51819 40.8537 11.6622 42.4257L12.1094 41.5312ZM7 35.25H8V12.75H7H6V35.25H7ZM7 12.75H8C8 10.7642 9.62243 8.83026 12.5566 7.36318L12.1094 6.46875L11.6622 5.57432C8.51819 7.14631 6 9.59663 6 12.75H7ZM12.1094 6.46875L12.5566 7.36319C15.4594 5.91188 19.5046 5 24 5V4V3C19.2615 3 14.8973 3.95686 11.6622 5.57431L12.1094 6.46875ZM40 30.7432L39.1793 30.1718C38.4106 31.276 37.1231 32.297 35.4434 33.1368L35.8906 34.0312L36.3378 34.9257C38.2035 33.9928 39.7998 32.781 40.8207 31.3145L40 30.7432ZM35.8906 34.0312L35.4434 33.1368C32.5406 34.5881 28.4954 35.5 24 35.5V36.5V37.5C28.7385 37.5 33.1027 36.5431 36.3378 34.9257L35.8906 34.0312ZM24 36.5V35.5C19.5046 35.5 15.4594 34.5881 12.5566 33.1368L12.1094 34.0312L11.6622 34.9257C14.8973 36.5431 19.2615 37.5 24 37.5V36.5ZM12.1094 34.0312L12.5566 33.1368C10.8769 32.297 9.58939 31.276 8.82072 30.1718L8 30.7432L7.17928 31.3145C8.20018 32.781 9.79648 33.9928 11.6622 34.9257L12.1094 34.0312ZM8 30.7432H7V35.25H8H9V30.7432H8ZM8 35.25H7C7 37.8185 9.06873 40.0108 12.1094 41.5311L12.5566 40.6367L13.0039 39.7423C10.179 38.3299 9 36.6551 9 35.25H8ZM12.5566 40.6367L12.1094 41.5312C15.1784 43.0655 19.3831 44 24 44V43V42C19.6262 42 15.7405 41.1105 13.0038 39.7423L12.5566 40.6367ZM24 43V44C28.6169 44 32.8216 43.0655 35.8906 41.5312L35.4434 40.6367L34.9962 39.7423C32.2595 41.1105 28.3738 42 24 42V43ZM35.4434 40.6367L35.8906 41.5311C38.9313 40.0108 41 37.8185 41 35.25H40H39C39 36.6551 37.821 38.3299 34.9961 39.7423L35.4434 40.6367ZM40 35.25H41V30.7432H40H39V35.25H40ZM40 23.2432L39.1793 22.6718C38.4106 23.776 37.1231 24.797 35.4434 25.6368L35.8906 26.5312L36.3378 27.4257C38.2035 26.4928 39.7998 25.281 40.8207 23.8145L40 23.2432ZM35.8906 26.5312L35.4434 25.6368C32.5406 27.0881 28.4954 28 24 28V29V30C28.7385 30 33.1027 29.0431 36.3378 27.4257L35.8906 26.5312ZM24 29V28C19.5046 28 15.4594 27.0881 12.5566 25.6368L12.1094 26.5312L11.6622 27.4257C14.8973 29.0431 19.2615 30 24 30V29ZM12.1094 26.5312L12.5566 25.6368C10.8769 24.797 9.58939 23.776 8.82072 22.6718L8 23.2432L7.17928 23.8145C8.20018 25.281 9.79648 26.4928 11.6622 27.4257L12.1094 26.5312ZM8 23.2432H7V27.75H8H9V23.2432H8ZM8 27.75H7C7 30.3185 9.06873 32.5108 12.1094 34.0311L12.5566 33.1367L13.0039 32.2423C10.179 30.8299 9 29.1551 9 27.75H8ZM12.5566 33.1367L12.1094 34.0312C15.1784 35.5655 19.3831 36.5 24 36.5V35.5V34.5C19.6262 34.5 15.7405 33.6105 13.0038 32.2423L12.5566 33.1367ZM24 35.5V36.5C28.6169 36.5 32.8216 35.5655 35.8906 34.0312L35.4434 33.1367L34.9962 32.2423C32.2595 33.6105 28.3738 34.5 24 34.5V35.5ZM35.4434 33.1367L35.8906 34.0311C38.9313 32.5108 41 30.3185 41 27.75H40H39C39 29.1551 37.821 30.8299 34.9961 32.2423L35.4434 33.1367ZM40 27.75H41V23.2432H40H39V27.75H40ZM40 15.7432L39.1793 15.1718C38.4106 16.276 37.1231 17.297 35.4434 18.1368L35.8906 19.0312L36.3378 19.9257C38.2035 18.9928 39.7998 17.781 40.8207 16.3145L40 15.7432ZM35.8906 19.0312L35.4434 18.1368C32.5406 19.5881 28.4954 20.5 24 20.5V21.5V22.5C28.7385 22.5 33.1027 21.5431 36.3378 19.9257L35.8906 19.0312ZM24 21.5V20.5C19.5046 20.5 15.4594 19.5881 12.5566 18.1368L12.1094 19.0312L11.6622 19.9257C14.8973 21.5431 19.2615 22.5 24 22.5V21.5ZM12.1094 19.0312L12.5566 18.1368C10.8769 17.297 9.58939 16.276 8.82072 15.1718L8 15.7432L7.17928 16.3145C8.20018 17.781 9.79648 18.9928 11.6622 19.9257L12.1094 19.0312ZM8 15.7432H7V20.25H8H9V15.7432H8ZM8 20.25H7C7 22.8185 9.06873 25.0108 12.1094 26.5311L12.5566 25.6367L13.0039 24.7423C10.179 23.3299 9 21.6551 9 20.25H8ZM12.5566 25.6367L12.1094 26.5312C15.1784 28.0655 19.3831 29 24 29V28V27C19.6262 27 15.7405 26.1105 13.0038 24.7423L12.5566 25.6367ZM24 28V29C28.6169 29 32.8216 28.0655 35.8906 26.5312L35.4434 25.6367L34.9962 24.7423C32.2595 26.1105 28.3738 27 24 27V28ZM35.4434 25.6367L35.8906 26.5311C38.9313 25.0108 41 22.8185 41 20.25H40H39C39 21.6551 37.821 23.3299 34.9961 24.7423L35.4434 25.6367ZM40 20.25H41V15.7432H40H39V20.25H40ZM24 5V4C19.3831 4 15.1784 4.93447 12.1094 6.46884L12.5566 7.36328L13.0038 8.25772C15.7405 6.88945 19.6262 6 24 6V5ZM12.5566 7.36328L12.1094 6.46885C9.06873 7.9892 7 10.1815 7 12.75H8H9C9 11.3449 10.179 9.67012 13.0039 8.25771L12.5566 7.36328ZM8 12.75H7C7 15.3185 9.06873 17.5108 12.1094 19.0311L12.5566 18.1367L13.0039 17.2423C10.179 15.8299 9 14.1551 9 12.75H8ZM12.5566 18.1367L12.1094 19.0312C15.1784 20.5655 19.3831 21.5 24 21.5V20.5V19.5C19.6262 19.5 15.7405 18.6105 13.0038 17.2423L12.5566 18.1367ZM24 20.5V21.5C28.6169 21.5 32.8216 20.5655 35.8906 19.0312L35.4434 18.1367L34.9962 17.2423C32.2595 18.6105 28.3738 19.5 24 19.5V20.5ZM35.4434 18.1367L35.8906 19.0311C38.9313 17.5108 41 15.3185 41 12.75H40H39C39 14.1551 37.821 15.8299 34.9961 17.2423L35.4434 18.1367ZM40 12.75H41C41 10.1815 38.9313 7.9892 35.8906 6.46885L35.4434 7.36328L34.9961 8.25771C37.821 9.67012 39 11.3449 39 12.75H40ZM35.4434 7.36328L35.8906 6.46884C32.8216 4.93447 28.6169 4 24 4V5V6C28.3738 6 32.2595 6.88945 34.9962 8.25772L35.4434 7.36328Z" fill="#3577F6"/>
</svg>
