<svg width="48" height="48" viewBox="0 0 48 48" fill="none" xmlns="http://www.w3.org/2000/svg">
<path d="M24 5.5C29.5375 5.5 34.9669 5.96641 40.25 6.8623C41.5619 7.0849 42.4999 8.22922 42.5 9.54785V11.6357C42.5 12.9618 41.9728 14.2342 41.0352 15.1719L30.1719 26.0352C29.4217 26.7853 29 27.8034 29 28.8643V34.7188C29 36.6126 27.9302 38.3444 26.2363 39.1914L19.7236 42.4473C19.5688 42.5247 19.3847 42.5167 19.2373 42.4258C19.0899 42.3347 19 42.1733 19 42V28.8643C19 27.8034 18.5783 26.7853 17.8281 26.0352L6.96484 15.1719C6.02716 14.2342 5.5 12.9618 5.5 11.6357V9.54785C5.50011 8.22924 6.43815 7.0849 7.75 6.8623C13.0332 5.96638 18.4624 5.50001 24 5.5ZM24 6.5C18.5187 6.50001 13.1452 6.96204 7.91699 7.84863C7.09795 7.98778 6.50011 8.70505 6.5 9.54785V11.6357C6.5 12.6966 6.92173 13.7147 7.67188 14.4648L18.5352 25.3281C19.4728 26.2658 20 27.5382 20 28.8643V41.1904L25.7891 38.2969C27.1442 37.6193 28 36.2338 28 34.7188V28.8643C28 27.5382 28.5272 26.2658 29.4648 25.3281L40.3281 14.4648C41.0783 13.7147 41.5 12.6966 41.5 11.6357V9.54785C41.4999 8.70503 40.9021 7.98779 40.083 7.84863C34.8549 6.96206 29.4813 6.5 24 6.5Z" fill="#ED40DC"/>
<path d="M24 5.5V4.5H24L24 5.5ZM40.25 6.8623L40.4173 5.8764L40.4172 5.87638L40.25 6.8623ZM42.5 9.54785H43.5V9.54778L42.5 9.54785ZM41.0352 15.1719L40.328 14.4648V14.4648L41.0352 15.1719ZM30.1719 26.0352L29.4648 25.328V25.3281L30.1719 26.0352ZM26.2363 39.1914L26.6835 40.0859L26.6835 40.0858L26.2363 39.1914ZM19.7236 42.4473L19.2765 41.5528L19.2764 41.5528L19.7236 42.4473ZM19.2373 42.4258L18.7116 43.2764L18.7122 43.2768L19.2373 42.4258ZM17.8281 26.0352L18.5352 25.3281L18.5352 25.328L17.8281 26.0352ZM6.96484 15.1719L7.67195 14.4648H7.67195L6.96484 15.1719ZM5.5 9.54785L4.5 9.54777V9.54785H5.5ZM7.75 6.8623L7.58281 5.87638L7.58271 5.8764L7.75 6.8623ZM24 6.5V5.5L24 5.5L24 6.5ZM7.91699 7.84863L7.7498 6.86271L7.7495 6.86276L7.91699 7.84863ZM6.5 9.54785L5.5 9.54772V9.54785H6.5ZM7.67188 14.4648L8.37898 13.7577V13.7577L7.67188 14.4648ZM20 41.1904H19C19 41.537 19.1794 41.8588 19.4742 42.041C19.769 42.2233 20.1371 42.2399 20.4471 42.0849L20 41.1904ZM25.7891 38.2969L26.2362 39.1914L26.2363 39.1913L25.7891 38.2969ZM29.4648 25.3281L30.1719 26.0352H30.172L29.4648 25.3281ZM40.3281 14.4648L41.0352 15.172V15.172L40.3281 14.4648ZM41.5 9.54785H42.5V9.54775L41.5 9.54785ZM40.083 7.84863L40.2505 6.86276L40.2502 6.86271L40.083 7.84863ZM24 5.5V6.5C29.4813 6.5 34.8547 6.96166 40.0828 7.84823L40.25 6.8623L40.4172 5.87638C35.079 4.97115 29.5938 4.5 24 4.5V5.5ZM40.25 6.8623L40.0827 7.84821C40.9014 7.98713 41.4999 8.70438 41.5 9.54792L42.5 9.54785L43.5 9.54778C43.4999 7.75406 42.2223 6.18267 40.4173 5.8764L40.25 6.8623ZM42.5 9.54785H41.5V11.6357H42.5H43.5V9.54785H42.5ZM42.5 11.6357H41.5C41.5 12.6965 41.0782 13.7146 40.328 14.4648L41.0352 15.1719L41.7423 15.879C42.8674 14.7538 43.5 13.2271 43.5 11.6357H42.5ZM41.0352 15.1719L40.328 14.4648L29.4648 25.328L30.1719 26.0352L30.879 26.7423L41.7423 15.879L41.0352 15.1719ZM30.1719 26.0352L29.4648 25.3281C28.5271 26.2657 28 27.5382 28 28.8643H29H30C30 28.0686 30.3164 27.3049 30.879 26.7423L30.1719 26.0352ZM29 28.8643H28V34.7188H29H30V28.8643H29ZM29 34.7188H28C28 36.234 27.144 37.6195 25.7891 38.297L26.2363 39.1914L26.6835 40.0858C28.7164 39.0694 30 36.9912 30 34.7188H29ZM26.2363 39.1914L25.7892 38.297L19.2765 41.5528L19.7236 42.4473L20.1708 43.3417L26.6835 40.0859L26.2363 39.1914ZM19.7236 42.4473L19.2764 41.5528C19.4304 41.4758 19.6142 41.4833 19.7624 41.5747L19.2373 42.4258L18.7122 43.2768C19.1551 43.5501 19.7071 43.5736 20.1709 43.3417L19.7236 42.4473ZM19.2373 42.4258L19.763 41.5751C19.9107 41.6664 20 41.827 20 42H19H18C18 42.5195 18.2691 43.0029 18.7116 43.2764L19.2373 42.4258ZM19 42H20V28.8643H19H18V42H19ZM19 28.8643H20C20 27.5382 19.4729 26.2657 18.5352 25.3281L17.8281 26.0352L17.121 26.7423C17.6836 27.3049 18 28.0686 18 28.8643H19ZM17.8281 26.0352L18.5352 25.328L7.67195 14.4648L6.96484 15.1719L6.25774 15.879L17.121 26.7423L17.8281 26.0352ZM6.96484 15.1719L7.67195 14.4648C6.92176 13.7146 6.5 12.6965 6.5 11.6357H5.5H4.5C4.5 13.2271 5.13257 14.7538 6.25774 15.879L6.96484 15.1719ZM5.5 11.6357H6.5V9.54785H5.5H4.5V11.6357H5.5ZM5.5 9.54785L6.5 9.54794C6.50007 8.70439 7.09861 7.98712 7.91729 7.84821L7.75 6.8623L7.58271 5.8764C5.77768 6.18267 4.50015 7.75409 4.5 9.54777L5.5 9.54785ZM7.75 6.8623L7.91719 7.84823C13.1453 6.96164 18.5187 6.50001 24 6.5L24 5.5L24 4.5C18.4062 4.50001 12.921 4.97113 7.58281 5.87638L7.75 6.8623ZM24 6.5L24 5.5C18.4624 5.50001 13.0329 5.96679 7.7498 6.86271L7.91699 7.84863L8.08419 8.83456C13.2574 7.95729 18.575 7.50001 24 7.5L24 6.5ZM7.91699 7.84863L7.7495 6.86276C6.43892 7.08542 5.50017 8.22838 5.5 9.54772L6.5 9.54785L7.5 9.54798C7.50005 9.18173 7.75698 8.89015 8.08449 8.83451L7.91699 7.84863ZM6.5 9.54785H5.5V11.6357H6.5H7.5V9.54785H6.5ZM6.5 11.6357H5.5C5.5 12.9618 6.0271 14.2343 6.96477 15.172L7.67188 14.4648L8.37898 13.7577C7.81636 13.1951 7.5 12.4314 7.5 11.6357H6.5ZM7.67188 14.4648L6.96477 15.172L17.828 26.0352L18.5352 25.3281L19.2423 24.621L8.37898 13.7577L7.67188 14.4648ZM18.5352 25.3281L17.828 26.0352C18.5782 26.7854 19 27.8035 19 28.8643H20H21C21 27.2729 20.3674 25.7462 19.2423 24.621L18.5352 25.3281ZM20 28.8643H19V41.1904H20H21V28.8643H20ZM20 41.1904L20.4471 42.0849L26.2362 39.1914L25.7891 38.2969L25.342 37.4024L19.5529 40.2959L20 41.1904ZM25.7891 38.2969L26.2363 39.1913C27.9304 38.3442 29 36.6124 29 34.7188H28H27C27 35.8553 26.358 36.8944 25.3418 37.4025L25.7891 38.2969ZM28 34.7188H29V28.8643H28H27V34.7188H28ZM28 28.8643H29C29 27.8035 29.4218 26.7854 30.1719 26.0352L29.4648 25.3281L28.7577 24.621C27.6326 25.7462 27 27.2729 27 28.8643H28ZM29.4648 25.3281L30.172 26.0352L41.0352 15.172L40.3281 14.4648L39.621 13.7577L28.7577 24.621L29.4648 25.3281ZM40.3281 14.4648L41.0352 15.172C41.9729 14.2343 42.5 12.9618 42.5 11.6357H41.5H40.5C40.5 12.4314 40.1836 13.1951 39.621 13.7577L40.3281 14.4648ZM41.5 11.6357H42.5V9.54785H41.5H40.5V11.6357H41.5ZM41.5 9.54785L42.5 9.54775C42.4999 8.22834 41.5611 7.08543 40.2505 6.86276L40.083 7.84863L39.9155 8.8345C40.2431 8.89016 40.5 9.18173 40.5 9.54796L41.5 9.54785ZM40.083 7.84863L40.2502 6.86271C34.9671 5.96682 29.5375 5.5 24 5.5V6.5V7.5C29.425 7.5 34.7427 7.95731 39.9158 8.83456L40.083 7.84863Z" fill="#ED40DC"/>
</svg>
