<svg width="48" height="48" viewBox="0 0 48 48" fill="none" xmlns="http://www.w3.org/2000/svg">
<path d="M33 31C33.2152 31 33.4066 31.1376 33.4746 31.3418L34.2627 33.707C34.6608 34.9015 35.5985 35.8392 36.793 36.2373L39.1582 37.0254C39.3624 37.0934 39.5 37.2848 39.5 37.5C39.5 37.7152 39.3624 37.9066 39.1582 37.9746L36.793 38.7627C35.5985 39.1608 34.6608 40.0985 34.2627 41.293L33.4746 43.6582C33.4066 43.8624 33.2152 44 33 44C32.7848 44 32.5934 43.8624 32.5254 43.6582L31.7373 41.293C31.3392 40.0985 30.4015 39.1608 29.207 38.7627L26.8418 37.9746C26.6376 37.9066 26.5 37.7152 26.5 37.5C26.5 37.2848 26.6376 37.0934 26.8418 37.0254L29.207 36.2373C30.4015 35.8392 31.3392 34.9015 31.7373 33.707L32.5254 31.3418C32.5934 31.1376 32.7848 31 33 31ZM32.6855 34.0234C32.1879 35.5165 31.0165 36.6879 29.5234 37.1855L28.5801 37.5L29.5234 37.8145C31.0165 38.3121 32.1879 39.4835 32.6855 40.9766L33 41.9189L33.3145 40.9766C33.8121 39.4835 34.9835 38.3121 36.4766 37.8145L37.4189 37.5L36.4766 37.1855C34.9835 36.6879 33.8121 35.5165 33.3145 34.0234L33 33.0801L32.6855 34.0234ZM18 10C18.2231 10 18.419 10.1479 18.4805 10.3623L20.1074 16.0547C20.9142 18.8785 23.1215 21.0858 25.9453 21.8926L31.6377 23.5195C31.8521 23.581 32 23.7769 32 24C32 24.2231 31.8521 24.419 31.6377 24.4805L25.9453 26.1074C23.1215 26.9142 20.9142 29.1215 20.1074 31.9453L18.4805 37.6377C18.419 37.8521 18.2231 38 18 38C17.7769 38 17.581 37.8521 17.5195 37.6377L15.8926 31.9453C15.0858 29.1215 12.8785 26.9142 10.0547 26.1074L4.3623 24.4805C4.14786 24.419 4 24.2231 4 24C4 23.7769 4.14786 23.581 4.3623 23.5195L10.0547 21.8926C12.8785 21.0858 15.0858 18.8785 15.8926 16.0547L17.5195 10.3623L17.5488 10.2852C17.6306 10.1133 17.8048 10 18 10ZM16.8545 16.3301C15.9527 19.4858 13.4858 21.9527 10.3301 22.8545L6.31934 24L10.3301 25.1455C13.4858 26.0473 15.9527 28.5142 16.8545 31.6699L18 35.6797L19.1455 31.6699C20.0473 28.5142 22.5142 26.0473 25.6699 25.1455L29.6797 24L25.6699 22.8545C22.5142 21.9527 20.0473 19.4858 19.1455 16.3301L18 12.3193L16.8545 16.3301ZM36 4C36.2294 4 36.4297 4.15632 36.4854 4.37891L37.0029 6.44922C37.5627 8.6885 39.3115 10.4372 41.5508 10.9971L43.6211 11.5146C43.8437 11.5703 44 11.7706 44 12C44 12.2294 43.8437 12.4297 43.6211 12.4854L41.5508 13.0029C39.3115 13.5628 37.5627 15.3115 37.0029 17.5508L36.4854 19.6211C36.4297 19.8437 36.2294 20 36 20C35.7706 20 35.5703 19.8437 35.5146 19.6211L34.9971 17.5508C34.4373 15.3115 32.6885 13.5628 30.4492 13.0029L28.3789 12.4854C28.1563 12.4297 28 12.2294 28 12C28 11.7706 28.1563 11.5703 28.3789 11.5146L30.4492 10.9971C32.6885 10.4372 34.4373 8.6885 34.9971 6.44922L35.5146 4.37891C35.5703 4.15632 35.7706 4 36 4ZM35.9678 6.69238C35.3184 9.28989 33.2899 11.3184 30.6924 11.9678L30.5625 12L30.6924 12.0322C33.2899 12.6816 35.3184 14.7101 35.9678 17.3076L36 17.4365L36.0322 17.3076C36.6816 14.7101 38.7101 12.6816 41.3076 12.0322L41.4365 12L41.3076 11.9678C38.7101 11.3184 36.6816 9.28989 36.0322 6.69238L36 6.5625L35.9678 6.69238Z" fill="white"/>
<path d="M33.4746 31.3418L34.4233 31.0257L34.4233 31.0256L33.4746 31.3418ZM34.2627 33.707L33.314 34.0231L33.314 34.0233L34.2627 33.707ZM36.793 36.2373L36.4767 37.186L36.4769 37.186L36.793 36.2373ZM39.1582 37.0254L39.4744 36.0767L39.4743 36.0767L39.1582 37.0254ZM39.1582 37.9746L39.4743 38.9233L39.4744 38.9233L39.1582 37.9746ZM36.793 38.7627L36.4769 37.814L36.4767 37.814L36.793 38.7627ZM34.2627 41.293L33.314 40.9767L33.314 40.9769L34.2627 41.293ZM33.4746 43.6582L34.4233 43.9744L34.4233 43.9743L33.4746 43.6582ZM32.5254 43.6582L31.5767 43.9743L31.5767 43.9744L32.5254 43.6582ZM31.7373 41.293L32.686 40.9769L32.686 40.9767L31.7373 41.293ZM29.207 38.7627L29.5233 37.814L29.5231 37.814L29.207 38.7627ZM26.8418 37.9746L26.5256 38.9233L26.5257 38.9233L26.8418 37.9746ZM26.8418 37.0254L26.5257 36.0767L26.5256 36.0767L26.8418 37.0254ZM29.207 36.2373L29.5231 37.186L29.5233 37.186L29.207 36.2373ZM31.7373 33.707L32.686 34.0233L32.686 34.0231L31.7373 33.707ZM32.5254 31.3418L31.5767 31.0256L31.5767 31.0257L32.5254 31.3418ZM29.5234 37.1855L29.8397 38.1342H29.8397L29.5234 37.1855ZM28.5801 37.5L28.2639 36.5513C27.8555 36.6874 27.5801 37.0696 27.5801 37.5C27.5801 37.9304 27.8555 38.3126 28.2639 38.4487L28.5801 37.5ZM29.5234 37.8145L29.8397 36.8658H29.8397L29.5234 37.8145ZM32.6855 40.9766L31.7369 41.2928L31.737 41.2931L32.6855 40.9766ZM33 41.9189L32.0514 42.2355C32.1876 42.6437 32.5697 42.9189 33 42.9189C33.4303 42.9189 33.8124 42.6437 33.9486 42.2355L33 41.9189ZM33.3145 40.9766L34.263 41.2931L34.2631 41.2928L33.3145 40.9766ZM36.4766 37.8145L36.7928 38.7631L36.7931 38.763L36.4766 37.8145ZM37.4189 37.5L37.7355 38.4486C38.1437 38.3124 38.4189 37.9303 38.4189 37.5C38.4189 37.0697 38.1437 36.6876 37.7355 36.5514L37.4189 37.5ZM36.4766 37.1855L36.7931 36.237L36.7928 36.2369L36.4766 37.1855ZM33 33.0801L33.9487 32.7639C33.8126 32.3555 33.4304 32.0801 33 32.0801C32.5696 32.0801 32.1874 32.3555 32.0513 32.7639L33 33.0801ZM18.4805 10.3623L19.442 10.0875L19.4418 10.0868L18.4805 10.3623ZM20.1074 16.0547L21.0689 15.78L21.0689 15.7799L20.1074 16.0547ZM25.9453 21.8926L26.2201 20.9311L26.22 20.9311L25.9453 21.8926ZM31.6377 23.5195L31.9132 22.5582L31.9125 22.558L31.6377 23.5195ZM31.6377 24.4805L31.9125 25.442L31.9132 25.4418L31.6377 24.4805ZM25.9453 26.1074L26.22 27.0689L26.2201 27.0689L25.9453 26.1074ZM20.1074 31.9453L21.0689 32.2201L21.0689 32.22L20.1074 31.9453ZM18.4805 37.6377L19.4418 37.9132L19.442 37.9125L18.4805 37.6377ZM17.5195 37.6377L16.558 37.9125L16.5582 37.9132L17.5195 37.6377ZM15.8926 31.9453L14.9311 32.22L14.9311 32.2201L15.8926 31.9453ZM10.0547 26.1074L9.77988 27.0689L9.77997 27.0689L10.0547 26.1074ZM4.3623 24.4805L4.08682 25.4418L4.0875 25.442L4.3623 24.4805ZM4 24H3V24H4ZM4.3623 23.5195L4.0875 22.558L4.08682 22.5582L4.3623 23.5195ZM10.0547 21.8926L9.77997 20.9311L9.77988 20.9311L10.0547 21.8926ZM15.8926 16.0547L14.9311 15.7799L14.9311 15.78L15.8926 16.0547ZM17.5195 10.3623L16.5847 10.0073C16.5747 10.0336 16.5658 10.0604 16.558 10.0875L17.5195 10.3623ZM17.5488 10.2852L16.6458 9.85558C16.6342 9.87999 16.6236 9.90487 16.614 9.93015L17.5488 10.2852ZM16.8545 16.3301L17.816 16.6048L17.816 16.6047L16.8545 16.3301ZM10.3301 22.8545L10.6047 23.816L10.6048 23.816L10.3301 22.8545ZM6.31934 24L6.04471 23.0385C5.61536 23.1611 5.31934 23.5535 5.31934 24C5.31934 24.4465 5.61536 24.8389 6.04471 24.9615L6.31934 24ZM10.3301 25.1455L10.6048 24.184L10.6047 24.184L10.3301 25.1455ZM16.8545 31.6699L17.816 31.3952L17.816 31.3952L16.8545 31.6699ZM18 35.6797L17.0385 35.9544C17.1611 36.3837 17.5535 36.6797 18 36.6797C18.4465 36.6797 18.8389 36.3837 18.9615 35.9544L18 35.6797ZM19.1455 31.6699L18.184 31.3952L18.184 31.3952L19.1455 31.6699ZM25.6699 25.1455L25.3952 24.184L25.3952 24.184L25.6699 25.1455ZM29.6797 24L29.9544 24.9615C30.3837 24.8389 30.6797 24.4465 30.6797 24C30.6797 23.5535 30.3837 23.1611 29.9544 23.0385L29.6797 24ZM25.6699 22.8545L25.3952 23.816L25.3952 23.816L25.6699 22.8545ZM19.1455 16.3301L18.184 16.6047L18.184 16.6048L19.1455 16.3301ZM18 12.3193L18.9616 12.0447C18.8389 11.6154 18.4465 11.3193 18 11.3193C17.5535 11.3193 17.1611 11.6154 17.0384 12.0447L18 12.3193ZM36 4V3V3V4ZM36.4854 4.37891L35.5152 4.62144L35.5152 4.62144L36.4854 4.37891ZM37.0029 6.44922L37.9731 6.20668V6.20668L37.0029 6.44922ZM41.5508 10.9971L41.7933 10.0269V10.0269L41.5508 10.9971ZM37.0029 17.5508L37.9731 17.7933V17.7933L37.0029 17.5508ZM36.4854 19.6211L35.5152 19.3786L35.5152 19.3786L36.4854 19.6211ZM35.5146 19.6211L36.4848 19.3786V19.3786L35.5146 19.6211ZM34.9971 17.5508L34.0269 17.7933V17.7933L34.9971 17.5508ZM30.4492 13.0029L30.6918 12.0328V12.0328L30.4492 13.0029ZM34.9971 6.44922L34.0269 6.20668V6.20668L34.9971 6.44922ZM35.5146 4.37891L36.4848 4.62144V4.62144L35.5146 4.37891ZM35.9678 6.69238L36.9379 6.93493L36.9383 6.9332L35.9678 6.69238ZM30.6924 11.9678L30.9332 12.9383L30.9349 12.9379L30.6924 11.9678ZM30.5625 12L30.3217 11.0294C29.8757 11.1401 29.5625 11.5405 29.5625 12C29.5625 12.4595 29.8757 12.8599 30.3217 12.9706L30.5625 12ZM30.6924 12.0322L30.9349 11.0621L30.9332 11.0617L30.6924 12.0322ZM35.9678 17.3076L36.9379 17.0651L36.9379 17.0651L35.9678 17.3076ZM36 17.4365L35.0299 17.6791C35.1411 18.1242 35.5411 18.4365 36 18.4365C36.4589 18.4365 36.8589 18.1242 36.9701 17.6791L36 17.4365ZM36.0322 17.3076L35.0621 17.0651L35.0621 17.0651L36.0322 17.3076ZM41.3076 12.0322L41.0651 11.0621L41.0651 11.0621L41.3076 12.0322ZM41.4365 12L41.6791 12.9701C42.1242 12.8589 42.4365 12.4589 42.4365 12C42.4365 11.5411 42.1242 11.1411 41.6791 11.0299L41.4365 12ZM41.3076 11.9678L41.0651 12.9379L41.0651 12.9379L41.3076 11.9678ZM36.0322 6.69238L35.0617 6.9332L35.0621 6.93493L36.0322 6.69238ZM36 6.5625L36.9706 6.32168C36.8599 5.87568 36.4595 5.5625 36 5.5625C35.5405 5.5625 35.1401 5.87568 35.0294 6.32168L36 6.5625ZM33 31V32C32.7857 32 32.5943 31.8631 32.5259 31.658L33.4746 31.3418L34.4233 31.0256C34.2188 30.4122 33.6447 30 33 30V31ZM33.4746 31.3418L32.5259 31.6579L33.314 34.0231L34.2627 33.707L35.2114 33.3909L34.4233 31.0257L33.4746 31.3418ZM34.2627 33.707L33.314 34.0233C33.8117 35.5163 34.9837 36.6883 36.4767 37.186L36.793 36.2373L37.1092 35.2886C36.2134 34.99 35.51 34.2866 35.2114 33.3908L34.2627 33.707ZM36.793 36.2373L36.4769 37.186L38.8421 37.9741L39.1582 37.0254L39.4743 36.0767L37.1091 35.2886L36.793 36.2373ZM39.1582 37.0254L38.842 37.9741C38.6369 37.9057 38.5 37.7143 38.5 37.5H39.5H40.5C40.5 36.8553 40.0878 36.2812 39.4744 36.0767L39.1582 37.0254ZM39.5 37.5H38.5C38.5 37.2857 38.6369 37.0943 38.842 37.0259L39.1582 37.9746L39.4744 38.9233C40.0878 38.7188 40.5 38.1447 40.5 37.5H39.5ZM39.1582 37.9746L38.8421 37.0259L36.4769 37.814L36.793 38.7627L37.1091 39.7114L39.4743 38.9233L39.1582 37.9746ZM36.793 38.7627L36.4767 37.814C34.9837 38.3117 33.8117 39.4837 33.314 40.9767L34.2627 41.293L35.2114 41.6092C35.51 40.7134 36.2134 40.01 37.1092 39.7114L36.793 38.7627ZM34.2627 41.293L33.314 40.9769L32.5259 43.3421L33.4746 43.6582L34.4233 43.9743L35.2114 41.6091L34.2627 41.293ZM33.4746 43.6582L32.5259 43.342C32.5943 43.1369 32.7857 43 33 43V44V45C33.6447 45 34.2188 44.5878 34.4233 43.9744L33.4746 43.6582ZM33 44V43C33.2143 43 33.4057 43.1369 33.4741 43.342L32.5254 43.6582L31.5767 43.9744C31.7812 44.5878 32.3553 45 33 45V44ZM32.5254 43.6582L33.4741 43.3421L32.686 40.9769L31.7373 41.293L30.7886 41.6091L31.5767 43.9743L32.5254 43.6582ZM31.7373 41.293L32.686 40.9767C32.1883 39.4837 31.0163 38.3117 29.5233 37.814L29.207 38.7627L28.8908 39.7114C29.7866 40.01 30.49 40.7134 30.7886 41.6092L31.7373 41.293ZM29.207 38.7627L29.5231 37.814L27.1579 37.0259L26.8418 37.9746L26.5257 38.9233L28.8909 39.7114L29.207 38.7627ZM26.8418 37.9746L27.158 37.0259C27.3631 37.0943 27.5 37.2857 27.5 37.5H26.5H25.5C25.5 38.1447 25.9122 38.7188 26.5256 38.9233L26.8418 37.9746ZM26.5 37.5H27.5C27.5 37.7143 27.3631 37.9057 27.158 37.9741L26.8418 37.0254L26.5256 36.0767C25.9122 36.2812 25.5 36.8553 25.5 37.5H26.5ZM26.8418 37.0254L27.1579 37.9741L29.5231 37.186L29.207 36.2373L28.8909 35.2886L26.5257 36.0767L26.8418 37.0254ZM29.207 36.2373L29.5233 37.186C31.0163 36.6883 32.1883 35.5163 32.686 34.0233L31.7373 33.707L30.7886 33.3908C30.49 34.2866 29.7866 34.99 28.8908 35.2886L29.207 36.2373ZM31.7373 33.707L32.686 34.0231L33.4741 31.6579L32.5254 31.3418L31.5767 31.0257L30.7886 33.3909L31.7373 33.707ZM32.5254 31.3418L33.4741 31.658C33.4057 31.8631 33.2143 32 33 32V31V30C32.3553 30 31.7812 30.4122 31.5767 31.0256L32.5254 31.3418ZM32.6855 34.0234L31.7369 33.7072C31.3387 34.9016 30.4016 35.8387 29.2072 36.2369L29.5234 37.1855L29.8397 38.1342C31.6313 37.537 33.037 36.1313 33.6342 34.3397L32.6855 34.0234ZM29.5234 37.1855L29.2072 36.2369L28.2639 36.5513L28.5801 37.5L28.8963 38.4487L29.8397 38.1342L29.5234 37.1855ZM28.5801 37.5L28.2639 38.4487L29.2072 38.7631L29.5234 37.8145L29.8397 36.8658L28.8963 36.5513L28.5801 37.5ZM29.5234 37.8145L29.2072 38.7631C30.4016 39.1613 31.3387 40.0984 31.7369 41.2928L32.6855 40.9766L33.6342 40.6603C33.037 38.8687 31.6313 37.463 29.8397 36.8658L29.5234 37.8145ZM32.6855 40.9766L31.737 41.2931L32.0514 42.2355L33 41.9189L33.9486 41.6024L33.6341 40.66L32.6855 40.9766ZM33 41.9189L33.9486 42.2355L34.263 41.2931L33.3145 40.9766L32.3659 40.66L32.0514 41.6024L33 41.9189ZM33.3145 40.9766L34.2631 41.2928C34.6613 40.0984 35.5984 39.1613 36.7928 38.7631L36.4766 37.8145L36.1603 36.8658C34.3687 37.463 32.963 38.8687 32.3658 40.6603L33.3145 40.9766ZM36.4766 37.8145L36.7931 38.763L37.7355 38.4486L37.4189 37.5L37.1024 36.5514L36.16 36.8659L36.4766 37.8145ZM37.4189 37.5L37.7355 36.5514L36.7931 36.237L36.4766 37.1855L36.16 38.1341L37.1024 38.4486L37.4189 37.5ZM36.4766 37.1855L36.7928 36.2369C35.5984 35.8387 34.6613 34.9016 34.2631 33.7072L33.3145 34.0234L32.3658 34.3397C32.963 36.1313 34.3687 37.537 36.1603 38.1342L36.4766 37.1855ZM33.3145 34.0234L34.2631 33.7072L33.9487 32.7639L33 33.0801L32.0513 33.3963L32.3658 34.3397L33.3145 34.0234ZM33 33.0801L32.0513 32.7639L31.7369 33.7072L32.6855 34.0234L33.6342 34.3397L33.9487 33.3963L33 33.0801ZM18 10V11C17.7763 11 17.5805 10.8517 17.5192 10.6378L18.4805 10.3623L19.4418 10.0868C19.2576 9.44406 18.6699 9 18 9V10ZM18.4805 10.3623L17.519 10.6371L19.1459 16.3295L20.1074 16.0547L21.0689 15.7799L19.442 10.0875L18.4805 10.3623ZM20.1074 16.0547L19.1459 16.3294C20.0476 19.4854 22.5146 21.9524 25.6706 22.8541L25.9453 21.8926L26.22 20.9311C23.7285 20.2192 21.7808 18.2715 21.0689 15.78L20.1074 16.0547ZM25.9453 21.8926L25.6705 22.8541L31.3629 24.481L31.6377 23.5195L31.9125 22.558L26.2201 20.9311L25.9453 21.8926ZM31.6377 23.5195L31.3622 24.4808C31.1483 24.4195 31 24.2237 31 24H32H33C33 23.3301 32.5559 22.7424 31.9132 22.5582L31.6377 23.5195ZM32 24H31C31 23.7763 31.1483 23.5805 31.3622 23.5192L31.6377 24.4805L31.9132 25.4418C32.5559 25.2576 33 24.6699 33 24H32ZM31.6377 24.4805L31.3629 23.519L25.6705 25.1459L25.9453 26.1074L26.2201 27.0689L31.9125 25.442L31.6377 24.4805ZM25.9453 26.1074L25.6706 25.1459C22.5146 26.0476 20.0476 28.5146 19.1459 31.6706L20.1074 31.9453L21.0689 32.22C21.7808 29.7285 23.7285 27.7808 26.22 27.0689L25.9453 26.1074ZM20.1074 31.9453L19.1459 31.6705L17.519 37.3629L18.4805 37.6377L19.442 37.9125L21.0689 32.2201L20.1074 31.9453ZM18.4805 37.6377L17.5192 37.3622C17.5805 37.1483 17.7763 37 18 37V38V39C18.6699 39 19.2576 38.556 19.4418 37.9132L18.4805 37.6377ZM18 38V37C18.2237 37 18.4195 37.1483 18.4808 37.3622L17.5195 37.6377L16.5582 37.9132C16.7424 38.556 17.3301 39 18 39V38ZM17.5195 37.6377L18.481 37.3629L16.8541 31.6705L15.8926 31.9453L14.9311 32.2201L16.558 37.9125L17.5195 37.6377ZM15.8926 31.9453L16.8541 31.6706C15.9524 28.5146 13.4854 26.0476 10.3294 25.1459L10.0547 26.1074L9.77997 27.0689C12.2715 27.7808 14.2192 29.7285 14.9311 32.22L15.8926 31.9453ZM10.0547 26.1074L10.3295 25.1459L4.63711 23.519L4.3623 24.4805L4.0875 25.442L9.77988 27.0689L10.0547 26.1074ZM4.3623 24.4805L4.63779 23.5192C4.85167 23.5805 5 23.7763 5 24H4H3C3 24.6699 3.44406 25.2576 4.08682 25.4418L4.3623 24.4805ZM4 24H5C5 24.2237 4.85167 24.4195 4.63779 24.4808L4.3623 23.5195L4.08682 22.5582C3.44406 22.7424 3 23.3301 3 24H4ZM4.3623 23.5195L4.63711 24.481L10.3295 22.8541L10.0547 21.8926L9.77988 20.9311L4.0875 22.558L4.3623 23.5195ZM10.0547 21.8926L10.3294 22.8541C13.4854 21.9524 15.9524 19.4854 16.8541 16.3294L15.8926 16.0547L14.9311 15.78C14.2192 18.2715 12.2715 20.2192 9.77997 20.9311L10.0547 21.8926ZM15.8926 16.0547L16.8541 16.3295L18.481 10.6371L17.5195 10.3623L16.558 10.0875L14.9311 15.7799L15.8926 16.0547ZM17.5195 10.3623L18.4544 10.7173L18.4837 10.6402L17.5488 10.2852L16.614 9.93015L16.5847 10.0073L17.5195 10.3623ZM17.5488 10.2852L18.4519 10.7147C18.3705 10.8858 18.1967 11 18 11V10V9C17.4129 9 16.8907 9.34074 16.6458 9.85558L17.5488 10.2852ZM16.8545 16.3301L15.893 16.0553C15.0862 18.8789 12.8789 21.0861 10.0553 21.893L10.3301 22.8545L10.6048 23.816C14.0928 22.8193 16.8193 20.0928 17.816 16.6048L16.8545 16.3301ZM10.3301 22.8545L10.0554 21.8929L6.04471 23.0385L6.31934 24L6.59396 24.9615L10.6047 23.816L10.3301 22.8545ZM6.31934 24L6.04471 24.9615L10.0554 26.1071L10.3301 25.1455L10.6047 24.184L6.59396 23.0385L6.31934 24ZM10.3301 25.1455L10.0553 26.107C12.8789 26.9138 15.0862 29.1211 15.893 31.9447L16.8545 31.6699L17.816 31.3952C16.8193 27.9072 14.0928 25.1807 10.6048 24.184L10.3301 25.1455ZM16.8545 31.6699L15.893 31.9446L17.0385 35.9544L18 35.6797L18.9615 35.405L17.816 31.3952L16.8545 31.6699ZM18 35.6797L18.9615 35.9544L20.107 31.9446L19.1455 31.6699L18.184 31.3952L17.0385 35.405L18 35.6797ZM19.1455 31.6699L20.107 31.9447C20.9138 29.1211 23.1211 26.9138 25.9447 26.107L25.6699 25.1455L25.3952 24.184C21.9072 25.1807 19.1807 27.9072 18.184 31.3952L19.1455 31.6699ZM25.6699 25.1455L25.9446 26.107L29.9544 24.9615L29.6797 24L29.405 23.0385L25.3952 24.184L25.6699 25.1455ZM29.6797 24L29.9544 23.0385L25.9446 21.893L25.6699 22.8545L25.3952 23.816L29.405 24.9615L29.6797 24ZM25.6699 22.8545L25.9447 21.893C23.1211 21.0862 20.9138 18.8789 20.107 16.0553L19.1455 16.3301L18.184 16.6048C19.1807 20.0928 21.9072 22.8193 25.3952 23.816L25.6699 22.8545ZM19.1455 16.3301L20.1071 16.0554L18.9616 12.0447L18 12.3193L17.0384 12.594L18.184 16.6047L19.1455 16.3301ZM18 12.3193L17.0384 12.0447L15.8929 16.0554L16.8545 16.3301L17.816 16.6047L18.9616 12.594L18 12.3193ZM36 4V5C35.7707 5 35.5709 4.84416 35.5152 4.62144L36.4854 4.37891L37.4555 4.13637C37.2885 3.46848 36.6882 3 36 3V4ZM36.4854 4.37891L35.5152 4.62144L36.0328 6.69175L37.0029 6.44922L37.9731 6.20668L37.4555 4.13637L36.4854 4.37891ZM37.0029 6.44922L36.0328 6.69175C36.6822 9.28932 38.7107 11.3178 41.3082 11.9672L41.5508 10.9971L41.7933 10.0269C39.9123 9.55668 38.4433 8.08768 37.9731 6.20668L37.0029 6.44922ZM41.5508 10.9971L41.3082 11.9672L43.3786 12.4848L43.6211 11.5146L43.8636 10.5445L41.7933 10.0269L41.5508 10.9971ZM43.6211 11.5146L43.3786 12.4848C43.1558 12.4291 43 12.2293 43 12H44H45C45 11.3118 44.5315 10.7115 43.8636 10.5445L43.6211 11.5146ZM44 12H43C43 11.7707 43.1558 11.5709 43.3786 11.5152L43.6211 12.4854L43.8636 13.4555C44.5315 13.2885 45 12.6882 45 12H44ZM43.6211 12.4854L43.3786 11.5152L41.3082 12.0328L41.5508 13.0029L41.7933 13.9731L43.8636 13.4555L43.6211 12.4854ZM41.5508 13.0029L41.3082 12.0328C38.7107 12.6822 36.6822 14.7107 36.0328 17.3082L37.0029 17.5508L37.9731 17.7933C38.4433 15.9123 39.9123 14.4433 41.7933 13.9731L41.5508 13.0029ZM37.0029 17.5508L36.0328 17.3082L35.5152 19.3786L36.4854 19.6211L37.4555 19.8636L37.9731 17.7933L37.0029 17.5508ZM36.4854 19.6211L35.5152 19.3786C35.5709 19.1558 35.7707 19 36 19V20V21C36.6882 21 37.2885 20.5315 37.4555 19.8636L36.4854 19.6211ZM36 20V19C36.2293 19 36.4291 19.1558 36.4848 19.3786L35.5146 19.6211L34.5445 19.8636C34.7115 20.5315 35.3118 21 36 21V20ZM35.5146 19.6211L36.4848 19.3786L35.9672 17.3082L34.9971 17.5508L34.0269 17.7933L34.5445 19.8636L35.5146 19.6211ZM34.9971 17.5508L35.9672 17.3082C35.3178 14.7107 33.2893 12.6822 30.6918 12.0328L30.4492 13.0029L30.2067 13.9731C32.0877 14.4433 33.5567 15.9123 34.0269 17.7933L34.9971 17.5508ZM30.4492 13.0029L30.6918 12.0328L28.6214 11.5152L28.3789 12.4854L28.1364 13.4555L30.2067 13.9731L30.4492 13.0029ZM28.3789 12.4854L28.6214 11.5152C28.8442 11.5709 29 11.7707 29 12H28H27C27 12.6882 27.4685 13.2885 28.1364 13.4555L28.3789 12.4854ZM28 12H29C29 12.2293 28.8442 12.4291 28.6214 12.4848L28.3789 11.5146L28.1364 10.5445C27.4685 10.7115 27 11.3118 27 12H28ZM28.3789 11.5146L28.6214 12.4848L30.6918 11.9672L30.4492 10.9971L30.2067 10.0269L28.1364 10.5445L28.3789 11.5146ZM30.4492 10.9971L30.6918 11.9672C33.2893 11.3178 35.3178 9.28932 35.9672 6.69175L34.9971 6.44922L34.0269 6.20668C33.5567 8.08768 32.0877 9.55668 30.2067 10.0269L30.4492 10.9971ZM34.9971 6.44922L35.9672 6.69175L36.4848 4.62144L35.5146 4.37891L34.5445 4.13637L34.0269 6.20668L34.9971 6.44922ZM35.5146 4.37891L36.4848 4.62144C36.4291 4.84416 36.2293 5 36 5V4V3C35.3118 3 34.7115 3.46848 34.5445 4.13637L35.5146 4.37891ZM35.9678 6.69238L34.9976 6.44984C34.4378 8.68906 32.6891 10.4378 30.4498 10.9976L30.6924 11.9678L30.9349 12.9379C33.8907 12.1989 36.1989 9.89071 36.9379 6.93493L35.9678 6.69238ZM30.6924 11.9678L30.4516 10.9972L30.3217 11.0294L30.5625 12L30.8033 12.9706L30.9332 12.9383L30.6924 11.9678ZM30.5625 12L30.3217 12.9706L30.4516 13.0028L30.6924 12.0322L30.9332 11.0617L30.8033 11.0294L30.5625 12ZM30.6924 12.0322L30.4498 13.0024C32.6891 13.5622 34.4378 15.3109 34.9976 17.5502L35.9678 17.3076L36.9379 17.0651C36.1989 14.1093 33.8907 11.8011 30.9349 11.0621L30.6924 12.0322ZM35.9678 17.3076L34.9976 17.5502L35.0299 17.6791L36 17.4365L36.9701 17.194L36.9379 17.0651L35.9678 17.3076ZM36 17.4365L36.9701 17.6791L37.0024 17.5502L36.0322 17.3076L35.0621 17.0651L35.0299 17.194L36 17.4365ZM36.0322 17.3076L37.0024 17.5502C37.5622 15.3109 39.3109 13.5622 41.5502 13.0024L41.3076 12.0322L41.0651 11.0621C38.1093 11.8011 35.8011 14.1093 35.0621 17.0651L36.0322 17.3076ZM41.3076 12.0322L41.5502 13.0024L41.6791 12.9701L41.4365 12L41.194 11.0299L41.0651 11.0621L41.3076 12.0322ZM41.4365 12L41.6791 11.0299L41.5502 10.9976L41.3076 11.9678L41.0651 12.9379L41.194 12.9701L41.4365 12ZM41.3076 11.9678L41.5502 10.9976C39.3109 10.4378 37.5622 8.68906 37.0024 6.44984L36.0322 6.69238L35.0621 6.93493C35.8011 9.89071 38.1093 12.1989 41.0651 12.9379L41.3076 11.9678ZM36.0322 6.69238L37.0028 6.45156L36.9706 6.32168L36 6.5625L35.0294 6.80332L35.0617 6.9332L36.0322 6.69238ZM36 6.5625L35.0294 6.32168L34.9972 6.45156L35.9678 6.69238L36.9383 6.9332L36.9706 6.80332L36 6.5625Z" fill="white"/>
</svg>
